<?xml version="1.0" encoding="UTF-8"?>
<svg xmlns="http://www.w3.org/2000/svg" viewBox="0 0 100 120" width="100" height="120">
  <!-- Ashoka Lion Capital -->
  <circle cx="50" cy="50" r="40" fill="#f8f9fa" stroke="#1976d2" stroke-width="2"/>
  <path d="M50 15 C65 30 80 30 85 25 C85 40 75 55 50 60 C25 55 15 40 15 25 C20 30 35 30 50 15" fill="#1976d2"/>
  <circle cx="50" cy="40" r="5" fill="#f8f9fa"/>
  
  <!-- Chakra (Wheel) -->
  <circle cx="50" cy="85" r="15" fill="none" stroke="#1976d2" stroke-width="2"/>
  <circle cx="50" cy="85" r="12" fill="none" stroke="#1976d2" stroke-width="1"/>
  <circle cx="50" cy="85" r="3" fill="#1976d2"/>
  
  <!-- Spokes -->
  <g stroke="#1976d2" stroke-width="1">
    <line x1="50" y1="70" x2="50" y2="100"/>
    <line x1="35" y1="85" x2="65" y2="85"/>
    <line x1="39" y1="74" x2="61" y2="96"/>
    <line x1="39" y1="96" x2="61" y2="74"/>
    <line x1="41" y1="71" x2="59" y2="99"/>
    <line x1="41" y1="99" x2="59" y2="71"/>
    <line x1="32" y1="78" x2="68" y2="92"/>
    <line x1="32" y1="92" x2="68" y2="78"/>
  </g>
  
  <!-- Text -->
  <text x="50" y="115" font-family="Arial, sans-serif" font-size="8" text-anchor="middle" fill="#1976d2" font-weight="bold">CITIZEN PORTAL</text>
</svg>
